<svg width="32" height="32" viewBox="0 0 32 32" fill="none" xmlns="http://www.w3.org/2000/svg">
<path d="M17.3182 12.4856L21.2231 8.58073C21.307 8.49674 21.2476 8.35312 21.1288 8.35312H18.0188C17.6506 8.35312 17.3521 8.05464 17.3521 7.68645V5.95312C17.3521 5.58493 17.6506 5.28645 18.0188 5.28645H26.0188C26.387 5.28645 26.6862 5.58493 26.6862 5.95312V13.9531C26.6862 14.3213 26.3877 14.6198 26.0195 14.6198H24.2862C23.918 14.6198 23.6195 14.3213 23.6195 13.9531V10.8431C23.6195 10.7243 23.4759 10.6648 23.3919 10.7488L19.4867 14.6541C19.2263 14.9144 18.8042 14.9144 18.5438 14.6541L17.3182 13.4284C17.0578 13.1681 17.0578 12.7459 17.3182 12.4856Z" fill="#F5F5F5"/>
<path d="M6.11524 26.7135H14.1152C14.4834 26.7135 14.7819 26.4151 14.7819 26.0469V24.3135C14.7819 23.9453 14.4834 23.6469 14.1152 23.6469H11.0053C10.8865 23.6469 10.827 23.5033 10.911 23.4193L14.8158 19.5144C15.0762 19.254 15.0762 18.8319 14.8158 18.5716L13.5902 17.3459C13.3298 17.0856 12.9077 17.0856 12.6474 17.3459L8.74216 21.2512C8.65816 21.3351 8.51454 21.2757 8.51454 21.1569L8.51454 18.0469C8.51454 17.6787 8.21607 17.3802 7.84788 17.3802H6.11454C5.74635 17.3802 5.44788 17.6787 5.44788 18.0469V26.0469C5.44788 26.4151 5.74705 26.7135 6.11524 26.7135Z" fill="#F5F5F5"/>
</svg>
